<svg overflow="hidden" version="1.2" xmlns="http://www.w3.org/2000/svg" viewBox="210 90 215 155" preserveAspectRatio="xMidYMid meet">
	<style>
		tspan { white-space:pre } 
		.s0 { fill: #ffffff } 
		.t1 { font-size: 12px;fill: #000000;font-family: "Myriad Pro" } 
	</style>
	<g id="LOGO">
		<path id="&lt;Path&gt;" class="s0" d="m353.79 221.45c-24.37 0-46.36-13.45-57.39-35.1-1.88-3.68-3.39-7.52-4.52-11.46-3.35 5.62-8.18 10.11-14.15 13.1-4.78 2.4-10.11 3.67-15.43 3.67q-1.83 0-3.64-0.2l-1.43-0.15 0.78-7.34 1.43 0.16q1.42 0.14 2.85 0.15c4.18 0 8.38-1 12.14-2.88 13.36-6.71 18.79-23.03 12.09-36.39-4.63-9.23-13.94-14.96-24.29-14.96-4.23 0-8.3 0.96-12.1 2.87-13.37 6.7-18.79 23.02-12.09 36.39l0.64 1.28-6.59 3.31-0.65-1.29c-4.12-8.22-4.79-17.57-1.88-26.32 2.91-8.76 9.04-15.85 17.26-19.97 4.84-2.42 10.02-3.65 15.4-3.65 12.32 0 23.47 6.37 29.68 16.81 4.91-17.18 16.62-31.48 32.6-39.62 9.01-4.59 19.09-7.02 29.15-7.02q3.18 0 6.35 0.32l1.44 0.14-0.73 7.34-1.44-0.14q-2.8-0.28-5.62-0.28c-8.9 0-17.82 2.15-25.8 6.22-27.97 14.25-39.13 48.59-24.88 76.56 9.77 19.17 29.24 31.07 50.82 31.07 9.01 0 17.67-2.08 25.74-6.19 13.55-6.91 23.6-18.67 28.3-33.13 4.7-14.46 3.48-29.89-3.42-43.44l-0.65-1.28 6.57-3.35 0.66 1.28c7.78 15.28 9.14 32.71 3.83 49.06-5.32 16.35-16.66 29.65-31.94 37.43-9.11 4.65-18.9 7-29.09 7z"/>
		<path id="&lt;Compound Path&gt;" fill-rule="evenodd" class="s0" d="m171.31 282.28q-4.21 0-7.79-1.37-3.53-1.42-6.17-3.95-2.58-2.58-4.05-6.01-1.48-3.42-1.48-7.53 0-4.11 1.48-7.53 1.47-3.43 4.11-5.96 2.63-2.58 6.16-3.95 3.58-1.42 7.8-1.42 4.26 0 7.84 1.48 3.64 1.42 6.17 4.26l-3.43 3.32q-2.1-2.21-4.74-3.26-2.63-1.11-5.63-1.11-3.11 0-5.8 1.05-2.63 1.06-4.58 2.95-1.95 1.9-3.06 4.53-1.05 2.58-1.05 5.64 0 3.06 1.05 5.69 1.11 2.58 3.06 4.48 1.95 1.89 4.58 2.95 2.69 1.05 5.8 1.05 3 0 5.63-1.05 2.64-1.11 4.74-3.37l3.43 3.31q-2.53 2.85-6.17 4.32-3.58 1.48-7.9 1.48zm39.04 0q-4.22 0-7.85-1.42-3.58-1.43-6.22-3.95-2.63-2.59-4.11-6.01-1.47-3.42-1.47-7.48 0-4.06 1.47-7.48 1.48-3.42 4.11-5.95 2.64-2.58 6.22-4.01 3.58-1.42 7.85-1.42 4.21 0 7.74 1.42 3.58 1.37 6.22 3.95 2.68 2.53 4.11 5.96 1.47 3.42 1.47 7.53 0 4.11-1.47 7.53-1.43 3.43-4.11 6.01-2.64 2.53-6.22 3.95-3.53 1.37-7.74 1.37zm0-4.69q3.05 0 5.63-1.05 2.64-1.06 4.53-2.95 1.95-1.95 3.01-4.53 1.1-2.58 1.1-5.64 0-3.06-1.1-5.64-1.06-2.58-3.01-4.47-1.89-1.95-4.53-3.01-2.58-1.05-5.63-1.05-3.11 0-5.74 1.05-2.59 1.06-4.53 3.01-1.95 1.89-3.06 4.47-1.05 2.58-1.05 5.64 0 3.06 1.05 5.64 1.11 2.58 3.06 4.53 1.94 1.89 4.53 2.95 2.63 1.05 5.74 1.05zm29.17 4.27v-36.88h4.32l22.13 27.48v-27.48h5.26v36.88h-4.32l-22.12-27.48v27.48zm55.07 0.42q-4.21 0-8.06-1.27-3.84-1.31-6.05-3.37l1.94-4.11q2.11 1.85 5.38 3.06 3.26 1.21 6.79 1.21 3.22 0 5.22-0.74 2-0.73 2.95-2 0.95-1.32 0.95-2.95 0-1.89-1.27-3.05-1.21-1.16-3.21-1.85-1.95-0.73-4.32-1.26-2.37-0.53-4.79-1.21-2.37-0.74-4.38-1.85-1.94-1.1-3.16-2.95-1.21-1.89-1.21-4.84 0-2.85 1.48-5.22 1.52-2.42 4.63-3.84 3.16-1.48 8.01-1.48 3.21 0 6.37 0.84 3.16 0.85 5.48 2.43l-1.74 4.21q-2.37-1.58-5-2.26-2.63-0.74-5.11-0.74-3.11 0-5.11 0.79-2 0.79-2.95 2.11-0.9 1.31-0.9 2.95 0 1.95 1.22 3.1 1.26 1.16 3.21 1.85 2 0.68 4.37 1.26 2.37 0.53 4.74 1.21 2.43 0.69 4.37 1.79 2.01 1.11 3.22 2.95 1.21 1.85 1.21 4.75 0 2.79-1.53 5.21-1.53 2.37-4.74 3.85-3.16 1.42-8.01 1.42zm30.36-0.42v-32.29h-12.64v-4.59h30.5v4.59h-12.64v32.29zm17.74 0l16.69-36.88h5.22l16.75 36.88h-5.53l-4.05-9.22h1.73l-1.53-4.22h-2.05l-7.95-18.09-7.96 18.09h-2.79l-1.42 4.22h2.36l-4.05 9.22zm9.48-9.22l1.85-4.22h15.9l1.85 4.22zm36.27 9.22v-36.88h4.32l22.13 27.48v-27.48h5.26v36.88h-4.31l-22.13-27.48v27.48zm60.82 0.42q-4.22 0-7.8-1.37-3.53-1.42-6.16-3.95-2.58-2.58-4.06-6.01-1.47-3.42-1.47-7.53 0-4.11 1.47-7.53 1.48-3.43 4.11-5.96 2.63-2.58 6.16-3.95 3.59-1.42 7.8-1.42 4.27 0 7.85 1.48 3.63 1.42 6.16 4.26l-3.42 3.32q-2.11-2.21-4.74-3.26-2.64-1.11-5.64-1.11-3.11 0-5.79 1.05-2.64 1.06-4.59 2.95-1.95 1.9-3.05 4.53-1.06 2.58-1.06 5.64 0 3.06 1.06 5.69 1.1 2.58 3.05 4.48 1.95 1.89 4.59 2.95 2.68 1.05 5.79 1.05 3 0 5.64-1.05 2.63-1.11 4.74-3.37l3.42 3.31q-2.53 2.85-6.16 4.32-3.58 1.48-7.9 1.48zm28.42-5.01h21.5v4.59h-26.76v-36.88h26.02v4.59h-20.76v11.32h-0.47v4.48h0.47zm18.49-11.91v-4.47h-18.49v4.47z"/>
		<path id="&lt;Compound Path&gt;" fill-rule="evenodd" class="s0" d="m3185.14 279.76q0-4.21 1.37-7.79 1.42-3.53 3.95-6.17 2.58-2.58 6.01-4.05 3.42-1.48 7.53-1.48 4.11 0 7.53 1.48 3.43 1.47 5.96 4.11 2.58 2.63 3.95 6.16 1.42 3.58 1.42 7.8 0 4.26-1.48 7.85-1.42 3.63-4.26 6.16l-3.32-3.43q2.21-2.1 3.26-4.74 1.11-2.63 1.11-5.63 0-3.11-1.05-5.8-1.06-2.63-2.95-4.58-1.9-1.95-4.53-3.06-2.58-1.05-5.64-1.05-3.06 0-5.69 1.05-2.58 1.11-4.48 3.06-1.89 1.95-2.95 4.58-1.05 2.69-1.05 5.8 0 3 1.05 5.63 1.11 2.64 3.37 4.74l-3.31 3.43q-2.85-2.53-4.32-6.16-1.48-3.59-1.48-7.91zm0 39.04q0-4.22 1.42-7.85 1.43-3.58 3.95-6.22 2.59-2.63 6.01-4.11 3.42-1.47 7.48-1.47 4.06 0 7.48 1.47 3.42 1.48 5.95 4.11 2.58 2.64 4.01 6.22 1.42 3.58 1.42 7.85 0 4.21-1.42 7.74-1.37 3.58-3.95 6.22-2.53 2.68-5.96 4.11-3.42 1.47-7.53 1.47-4.11 0-7.53-1.47-3.43-1.43-6.01-4.11-2.53-2.64-3.95-6.22-1.37-3.53-1.37-7.74zm4.69 0q0 3.05 1.05 5.63 1.06 2.64 2.95 4.53 1.95 1.95 4.53 3.01 2.58 1.1 5.64 1.1 3.06 0 5.64-1.1 2.58-1.06 4.47-3.01 1.95-1.89 3.01-4.53 1.05-2.58 1.05-5.63 0-3.11-1.05-5.74-1.06-2.59-3.01-4.53-1.89-1.95-4.47-3.06-2.58-1.05-5.64-1.05-3.06 0-5.64 1.05-2.58 1.11-4.53 3.06-1.89 1.94-2.95 4.53-1.05 2.63-1.05 5.74zm-4.27 29.17h36.88v4.32l-27.48 22.13h27.48v5.26h-36.88v-4.32l27.48-22.12h-27.48zm-0.42 55.07q0-4.21 1.27-8.06 1.31-3.84 3.37-6.05l4.11 1.95q-1.85 2.1-3.06 5.37-1.21 3.27-1.21 6.79 0 3.22 0.74 5.22 0.73 2 2 2.95 1.32 0.95 2.95 0.95 1.89 0 3.05-1.27 1.16-1.21 1.85-3.21 0.73-1.95 1.26-4.32 0.53-2.37 1.21-4.79 0.74-2.37 1.85-4.38 1.1-1.94 2.95-3.16 1.89-1.21 4.84-1.21 2.85 0 5.22 1.48 2.42 1.53 3.84 4.63 1.48 3.16 1.48 8.01 0 3.21-0.84 6.37-0.85 3.16-2.43 5.48l-4.21-1.74q1.58-2.37 2.26-5 0.74-2.63 0.74-5.11 0-3.11-0.79-5.11-0.79-2-2.11-2.95-1.31-0.9-2.95-0.9-1.95 0-3.1 1.22-1.16 1.26-1.85 3.21-0.68 2-1.26 4.37-0.53 2.37-1.21 4.74-0.69 2.43-1.79 4.37-1.11 2.01-2.95 3.22-1.85 1.21-4.75 1.21-2.79 0-5.21-1.53-2.37-1.53-3.85-4.74-1.42-3.16-1.42-8.01zm0.42 30.36h32.29v-12.64h4.59v30.5h-4.59v-12.64h-32.29zm0 17.74l36.88 16.7v5.21l-36.88 16.75v-5.53l9.22-4.05v1.73l4.22-1.53v-2.05l18.09-7.95-18.09-7.95v-2.8l-4.22-1.42v2.36l-9.22-4.05zm9.22 9.48l4.22 1.85v15.9l-4.22 1.85zm-9.22 36.27h36.88v4.32l-27.48 22.13h27.48v5.27h-36.88v-4.32l27.48-22.13h-27.48zm-0.42 60.82q0-4.22 1.37-7.8 1.42-3.53 3.95-6.16 2.58-2.58 6.01-4.06 3.42-1.47 7.53-1.47 4.11 0 7.53 1.47 3.43 1.48 5.96 4.11 2.58 2.64 3.95 6.16 1.42 3.59 1.42 7.8 0 4.27-1.48 7.85-1.42 3.63-4.26 6.16l-3.32-3.42q2.21-2.11 3.26-4.74 1.11-2.64 1.11-5.64 0-3.11-1.05-5.79-1.06-2.64-2.95-4.59-1.9-1.95-4.53-3.05-2.58-1.06-5.64-1.06-3.06 0-5.69 1.06-2.58 1.1-4.48 3.05-1.89 1.95-2.95 4.59-1.05 2.68-1.05 5.79 0 3 1.05 5.64 1.11 2.63 3.37 4.74l-3.31 3.42q-2.85-2.53-4.32-6.16-1.48-3.58-1.48-7.9zm5.01 28.42v21.5h-4.59v-26.76h36.88v26.02h-4.59v-20.76h-11.32v-0.47h-4.48v0.47zm11.91 18.49h4.47v-18.49h-4.47z"/>
		<path id="&lt;Path&gt;" class="s0" d="m1386.91 496.31c-24.37 0-46.37-13.45-57.4-35.11-1.87-3.67-3.39-7.51-4.52-11.46-3.34 5.62-8.17 10.11-14.14 13.1-4.78 2.4-10.12 3.67-15.44 3.67q-1.83 0-3.63-0.19l-1.43-0.16 0.77-7.33 1.44 0.15q1.42 0.15 2.84 0.15c4.18 0 8.38-1 12.14-2.88 6.46-3.24 11.28-8.82 13.57-15.7 2.28-6.88 1.76-14.23-1.48-20.69-4.63-9.23-13.93-14.96-24.29-14.96-4.23 0-8.3 0.97-12.1 2.87-6.46 3.24-11.28 8.81-13.57 15.7-2.28 6.88-1.76 14.23 1.48 20.69l0.65 1.29-6.6 3.3-0.65-1.28c-4.12-8.23-4.79-17.58-1.88-26.33 2.91-8.75 9.04-15.84 17.26-19.97 4.84-2.42 10.02-3.65 15.41-3.65 12.31 0 23.46 6.38 29.67 16.81 4.91-17.17 16.63-31.48 32.6-39.62 9.01-4.59 19.1-7.02 29.15-7.02q3.18 0 6.36 0.32l1.43 0.14-0.73 7.35-1.44-0.15q-2.8-0.28-5.61-0.28c-8.9 0-17.83 2.15-25.81 6.22-27.96 14.25-39.13 48.59-24.88 76.56 9.77 19.17 29.24 31.08 50.82 31.08 9.01 0 17.68-2.09 25.75-6.2 13.54-6.9 23.59-18.67 28.29-33.13 4.7-14.46 3.48-29.88-3.42-43.43l-0.65-1.28 6.57-3.35 0.66 1.28c7.78 15.28 9.15 32.7 3.83 49.05-5.31 16.36-16.65 29.65-31.93 37.43-9.12 4.65-18.91 7.01-29.09 7.01z"/>
		<path id="&lt;Path&gt;" class="s0" d="m353.79 555.31c-24.37 0-46.36-13.46-57.39-35.11-1.88-3.67-3.39-7.52-4.52-11.46-3.35 5.62-8.18 10.11-14.15 13.1-4.77 2.4-10.11 3.67-15.43 3.67q-1.82 0-3.63-0.19l-1.44-0.15 0.78-7.34 1.43 0.15q1.42 0.15 2.85 0.15c4.18 0 8.38-1 12.14-2.88 6.46-3.24 11.28-8.82 13.57-15.7 2.28-6.88 1.76-14.23-1.48-20.69-4.63-9.23-13.94-14.96-24.29-14.96-4.23 0-8.3 0.96-12.1 2.87-13.37 6.7-18.79 23.02-12.09 36.39l0.64 1.29-6.59 3.3-0.65-1.28c-8.52-17.01-1.62-37.77 15.38-46.3 4.84-2.42 10.02-3.65 15.4-3.65 12.32 0 23.47 6.38 29.68 16.81 4.91-17.17 16.62-31.48 32.6-39.62 9.01-4.59 19.09-7.02 29.15-7.02q3.18 0 6.35 0.32l1.44 0.14-0.73 7.35-1.44-0.15q-2.8-0.28-5.62-0.28c-8.9 0-17.82 2.15-25.8 6.22-13.53 6.89-23.57 18.66-28.27 33.14-4.7 14.47-3.5 29.9 3.39 43.42 9.77 19.17 29.24 31.08 50.82 31.08 9.01 0 17.67-2.09 25.74-6.2 13.55-6.9 23.6-18.67 28.3-33.13 4.7-14.46 3.48-29.89-3.42-43.43l-0.65-1.29 6.57-3.35 0.66 1.29c16.09 31.59 3.49 70.39-28.11 86.48-9.11 4.65-18.9 7-29.09 7.01z"/>
		<path id="&lt;Compound Path&gt;" fill-rule="evenodd" class="s0" d="m173.38 732q-4.22 0-7.8-1.37-3.53-1.42-6.16-3.95-2.58-2.58-4.06-6-1.47-3.43-1.47-7.53 0-4.11 1.47-7.54 1.48-3.42 4.11-5.95 2.63-2.58 6.16-3.95 3.59-1.42 7.8-1.42 4.27 0 7.85 1.47 3.63 1.42 6.16 4.27l-3.42 3.32q-2.11-2.22-4.74-3.27-2.64-1.1-5.64-1.1-3.11 0-5.79 1.05-2.64 1.05-4.59 2.95-1.95 1.89-3.05 4.53-1.06 2.58-1.06 5.64 0 3.05 1.06 5.68 1.1 2.59 3.05 4.48 1.95 1.9 4.59 2.95 2.68 1.06 5.79 1.06 3 0 5.64-1.06 2.63-1.1 4.74-3.37l3.42 3.32q-2.53 2.84-6.16 4.32-3.58 1.47-7.9 1.47zm39.03 0q-4.21 0-7.85-1.42-3.58-1.42-6.21-3.95-2.64-2.58-4.11-6-1.48-3.43-1.48-7.48 0-4.06 1.48-7.48 1.47-3.43 4.11-5.96 2.63-2.58 6.21-4 3.58-1.42 7.85-1.42 4.21 0 7.74 1.42 3.59 1.37 6.22 3.95 2.69 2.53 4.11 5.95 1.47 3.43 1.47 7.54 0 4.1-1.47 7.53-1.42 3.42-4.11 6-2.63 2.53-6.22 3.95-3.53 1.37-7.74 1.37zm0-4.68q3.06 0 5.64-1.06 2.63-1.05 4.53-2.95 1.95-1.95 3-4.53 1.11-2.58 1.11-5.63 0-3.06-1.11-5.64-1.05-2.58-3-4.48-1.9-1.95-4.53-3-2.58-1.05-5.64-1.05-3.11 0-5.74 1.05-2.58 1.05-4.53 3-1.95 1.9-3.06 4.48-1.05 2.58-1.05 5.64 0 3.05 1.05 5.63 1.11 2.58 3.06 4.53 1.95 1.9 4.53 2.95 2.63 1.06 5.74 1.06zm29.18 4.26v-36.87h4.31l22.13 27.47v-27.47h5.27v36.87h-4.32l-22.13-27.47v27.47zm55.08 0.42q-4.22 0-8.06-1.26-3.85-1.32-6.06-3.37l1.95-4.11q2.11 1.84 5.37 3.05 3.27 1.22 6.8 1.22 3.21 0 5.21-0.74 2-0.74 2.95-2 0.95-1.32 0.95-2.95 0-1.9-1.26-3.06-1.22-1.16-3.22-1.84-1.95-0.74-4.32-1.27-2.37-0.52-4.79-1.21-2.37-0.74-4.37-1.84-1.95-1.11-3.16-2.95-1.21-1.9-1.22-4.85 0.01-2.84 1.48-5.21 1.53-2.43 4.64-3.85 3.16-1.47 8-1.47 3.22 0 6.38 0.84 3.16 0.84 5.47 2.42l-1.73 4.22q-2.37-1.58-5.01-2.27-2.63-0.74-5.11-0.74-3.11 0-5.11 0.79-2 0.79-2.95 2.11-0.89 1.32-0.89 2.95 0 1.95 1.21 3.11 1.26 1.16 3.21 1.84 2 0.69 4.37 1.27 2.37 0.52 4.74 1.21 2.43 0.68 4.38 1.79 2 1.11 3.21 2.95 1.21 1.84 1.21 4.74 0 2.79-1.53 5.22-1.52 2.37-4.74 3.84-3.16 1.42-8 1.42zm30.36-0.42v-32.29h-12.65v-4.58h30.5v4.58h-12.64v32.29zm17.74 0l16.7-36.87h5.21l16.75 36.87h-5.53l-4.05-9.22h1.74l-1.53-4.21h-2.06l-7.95-18.09-7.95 18.09h-2.8l-1.42 4.21h2.37l-4.05 9.22zm9.47-9.22l1.85-4.21h15.91l1.85 4.21zm36.27 9.22v-36.87h4.32l22.12 27.47v-27.47h5.27v36.87h-4.32l-22.13-27.47v27.47zm60.82 0.42q-4.21 0-7.8-1.37-3.52-1.42-6.16-3.95-2.58-2.58-4.06-6-1.47-3.43-1.47-7.53 0-4.11 1.47-7.54 1.48-3.42 4.11-5.95 2.64-2.58 6.17-3.95 3.58-1.42 7.79-1.42 4.27 0 7.85 1.47 3.64 1.42 6.16 4.27l-3.42 3.32q-2.11-2.22-4.74-3.27-2.63-1.1-5.64-1.1-3.1 0-5.79 1.05-2.63 1.05-4.58 2.95-1.95 1.89-3.06 4.53-1.05 2.58-1.05 5.64 0 3.05 1.05 5.68 1.11 2.59 3.06 4.48 1.95 1.9 4.58 2.95 2.69 1.06 5.79 1.06 3.01 0 5.64-1.06 2.63-1.1 4.74-3.37l3.42 3.32q-2.52 2.84-6.16 4.32-3.58 1.47-7.9 1.47zm28.43-5h21.49v4.58h-26.76v-36.87h26.02v4.58h-20.75v11.33h-0.48v4.47h0.48zm18.49-11.9v-4.48h-18.49v4.48z"/>
		<path id="&lt;Compound Path&gt;" fill-rule="evenodd" class="s0" d="m677.2 280.95q0-4.21 1.37-7.79 1.42-3.53 3.95-6.16 2.58-2.59 6.01-4.06 3.42-1.48 7.53-1.48 4.11 0 7.53 1.48 3.43 1.47 5.95 4.11 2.59 2.63 3.96 6.16 1.42 3.58 1.42 7.8 0 4.26-1.48 7.85-1.42 3.63-4.26 6.16l-3.32-3.42q2.21-2.11 3.26-4.75 1.11-2.63 1.11-5.63 0-3.11-1.05-5.8-1.06-2.63-2.95-4.58-1.9-1.95-4.53-3.05-2.58-1.06-5.64-1.06-3.06 0-5.69 1.06-2.58 1.1-4.48 3.05-1.89 1.95-2.95 4.58-1.05 2.69-1.05 5.8 0 3 1.05 5.63 1.11 2.64 3.37 4.75l-3.31 3.42q-2.85-2.53-4.32-6.16-1.48-3.59-1.48-7.91zm0 39.04q0-4.22 1.42-7.85 1.43-3.58 3.95-6.22 2.59-2.63 6.01-4.11 3.42-1.47 7.48-1.47 4.06 0 7.48 1.47 3.42 1.48 5.95 4.11 2.58 2.64 4.01 6.22 1.42 3.58 1.42 7.85 0 4.21-1.42 7.74-1.37 3.58-3.96 6.22-2.52 2.68-5.95 4.11-3.42 1.47-7.53 1.47-4.11 0-7.53-1.47-3.43-1.43-6.01-4.11-2.53-2.64-3.95-6.22-1.37-3.53-1.37-7.74zm4.69 0q0 3.05 1.05 5.63 1.06 2.64 2.95 4.53 1.95 1.95 4.53 3.01 2.58 1.1 5.64 1.1 3.06 0 5.64-1.1 2.58-1.06 4.47-3.01 1.95-1.89 3.01-4.53 1.05-2.58 1.05-5.63 0-3.11-1.05-5.74-1.06-2.58-3.01-4.53-1.89-1.95-4.47-3.06-2.58-1.05-5.64-1.05-3.06 0-5.64 1.05-2.58 1.11-4.53 3.06-1.89 1.95-2.95 4.53-1.05 2.63-1.05 5.74zm-4.27 29.17h36.88v4.32l-27.48 22.13h27.48v5.26h-36.88v-4.32l27.48-22.12h-27.48zm-0.42 55.07q0-4.21 1.27-8.06 1.31-3.84 3.37-6.05l4.11 1.95q-1.85 2.1-3.06 5.37-1.21 3.27-1.21 6.79 0 3.22 0.74 5.22 0.73 2 2 2.95 1.32 0.95 2.95 0.95 1.89 0 3.05-1.27 1.16-1.21 1.85-3.21 0.73-1.95 1.26-4.32 0.53-2.37 1.21-4.79 0.74-2.37 1.85-4.38 1.1-1.94 2.95-3.16 1.89-1.21 4.84-1.21 2.85 0 5.22 1.48 2.42 1.53 3.84 4.63 1.48 3.16 1.48 8.01 0 3.21-0.84 6.37-0.85 3.16-2.43 5.48l-4.21-1.74q1.58-2.37 2.26-5 0.74-2.63 0.74-5.11 0-3.11-0.79-5.11-0.79-2-2.11-2.95-1.31-0.89-2.95-0.9-1.95 0.01-3.1 1.22-1.16 1.26-1.85 3.21-0.68 2-1.26 4.37-0.53 2.37-1.21 4.74-0.69 2.43-1.8 4.37-1.1 2.01-2.94 3.22-1.85 1.21-4.75 1.21-2.79 0-5.21-1.53-2.37-1.53-3.85-4.74-1.42-3.16-1.42-8.01zm0.42 30.36h32.29v-12.64h4.59v30.5h-4.59v-12.64h-32.29zm0 17.74l36.88 16.7v5.21l-36.88 16.75v-5.53l9.22-4.05v1.73l4.22-1.52v-2.06l18.09-7.95-18.09-7.95v-2.8l-4.22-1.42v2.36l-9.22-4.05zm9.22 9.48l4.22 1.85v15.9l-4.22 1.86zm-9.22 36.26h36.88v4.32l-27.48 22.13h27.48v5.27h-36.88v-4.32l27.48-22.13h-27.48zm-0.42 60.82q0-4.22 1.37-7.8 1.42-3.53 3.95-6.16 2.58-2.58 6.01-4.06 3.42-1.47 7.53-1.47 4.11 0 7.53 1.47 3.43 1.48 5.95 4.11 2.59 2.64 3.96 6.16 1.42 3.59 1.42 7.8 0 4.27-1.48 7.85-1.42 3.63-4.26 6.16l-3.32-3.42q2.21-2.11 3.26-4.74 1.11-2.64 1.11-5.64 0-3.11-1.05-5.79-1.06-2.64-2.95-4.59-1.9-1.94-4.53-3.05-2.58-1.05-5.64-1.05-3.06 0-5.69 1.05-2.58 1.11-4.48 3.05-1.89 1.95-2.95 4.59-1.05 2.68-1.05 5.79 0 3 1.05 5.64 1.11 2.63 3.37 4.74l-3.31 3.42q-2.85-2.53-4.32-6.16-1.48-3.58-1.48-7.9zm5.01 28.42v21.5h-4.59v-26.76h36.88v26.02h-4.59v-20.76h-11.32v-0.47h-4.48v0.47zm11.91 18.49h4.47v-18.49h-4.47z"/>
		<path id="&lt;Compound Path&gt;" fill-rule="evenodd" class="s0" d="m3973.81 452.81q-4.21 0-7.79-1.37-3.53-1.42-6.16-3.95-2.59-2.58-4.06-6.01-1.48-3.42-1.48-7.53 0-4.11 1.48-7.53 1.47-3.43 4.11-5.96 2.63-2.58 6.16-3.95 3.58-1.42 7.8-1.42 4.26 0 7.85 1.48 3.63 1.42 6.16 4.26l-3.42 3.32q-2.11-2.21-4.75-3.26-2.63-1.11-5.63-1.11-3.11 0-5.8 1.05-2.63 1.06-4.58 2.95-1.95 1.9-3.05 4.53-1.06 2.58-1.06 5.64 0 3.05 1.06 5.69 1.1 2.58 3.05 4.48 1.95 1.89 4.58 2.95 2.69 1.05 5.8 1.05 3 0 5.63-1.05 2.64-1.11 4.75-3.38l3.42 3.32q-2.53 2.85-6.16 4.32-3.59 1.48-7.91 1.48zm39.04 0q-4.22 0-7.85-1.43-3.58-1.42-6.22-3.95-2.63-2.58-4.1-6-1.48-3.42-1.48-7.48 0-4.06 1.48-7.48 1.47-3.42 4.1-5.95 2.64-2.58 6.22-4.01 3.58-1.42 7.85-1.42 4.21 0 7.74 1.42 3.58 1.37 6.22 3.95 2.68 2.53 4.11 5.96 1.47 3.42 1.47 7.53 0 4.11-1.47 7.53-1.43 3.43-4.11 6.01-2.64 2.53-6.22 3.95-3.53 1.37-7.74 1.37zm0-4.69q3.05 0 5.63-1.05 2.64-1.06 4.53-2.95 1.95-1.95 3.01-4.53 1.1-2.59 1.1-5.64 0-3.06-1.1-5.64-1.06-2.58-3.01-4.47-1.89-1.95-4.53-3.01-2.58-1.05-5.63-1.05-3.11 0-5.74 1.05-2.58 1.06-4.53 3.01-1.95 1.89-3.06 4.47-1.05 2.58-1.05 5.64 0 3.05 1.05 5.64 1.11 2.58 3.06 4.53 1.95 1.89 4.53 2.95 2.63 1.05 5.74 1.05zm29.17 4.27v-36.88h4.32l22.13 27.48v-27.48h5.26v36.88h-4.32l-22.12-27.48v27.48zm55.07 0.42q-4.21 0-8.05-1.27-3.85-1.31-6.06-3.37l1.95-4.11q2.1 1.85 5.37 3.06 3.27 1.21 6.79 1.21 3.22 0 5.22-0.74 2-0.74 2.95-2 0.95-1.32 0.95-2.95 0-1.9-1.27-3.05-1.21-1.16-3.21-1.85-1.95-0.74-4.32-1.26-2.37-0.53-4.79-1.21-2.37-0.74-4.37-1.85-1.95-1.1-3.17-2.95-1.21-1.89-1.21-4.84 0-2.85 1.48-5.22 1.53-2.42 4.63-3.84 3.16-1.48 8.01-1.48 3.21 0 6.37 0.84 3.16 0.85 5.48 2.43l-1.74 4.21q-2.37-1.58-5-2.26-2.63-0.74-5.11-0.74-3.11 0-5.11 0.79-2 0.79-2.95 2.11-0.89 1.31-0.89 2.95 0 1.94 1.21 3.1 1.26 1.16 3.21 1.85 2 0.68 4.37 1.26 2.37 0.53 4.74 1.21 2.43 0.69 4.38 1.79 2 1.11 3.21 2.95 1.21 1.85 1.21 4.74 0 2.8-1.53 5.22-1.52 2.37-4.74 3.84-3.16 1.43-8.01 1.43zm30.36-0.42v-32.29h-12.64v-4.59h30.5v4.59h-12.64v32.29zm17.74 0l16.7-36.88h5.21l16.75 36.88h-5.53l-4.05-9.22h1.73l-1.52-4.22h-2.06l-7.95-18.09-7.95 18.09h-2.8l-1.42 4.22h2.36l-4.05 9.22zm27.23-13.44l1.86 4.22h-19.61l1.85-4.22zm18.52 13.44v-36.88h4.32l22.12 27.48v-27.48h5.27v36.88h-4.32l-22.13-27.48v27.48zm60.82 0.42q-4.21 0-7.8-1.37-3.52-1.42-6.16-3.95-2.58-2.58-4.06-6.01-1.47-3.42-1.47-7.53 0-4.11 1.47-7.53 1.48-3.43 4.11-5.96 2.64-2.58 6.17-3.95 3.58-1.42 7.79-1.42 4.27 0 7.85 1.48 3.64 1.42 6.16 4.26l-3.42 3.32q-2.11-2.21-4.74-3.26-2.63-1.11-5.64-1.11-3.1 0-5.79 1.05-2.63 1.06-4.58 2.95-1.95 1.9-3.06 4.53-1.05 2.58-1.05 5.64 0 3.05 1.05 5.69 1.11 2.58 3.06 4.48 1.95 1.89 4.58 2.95 2.69 1.05 5.79 1.05 3.01 0 5.64-1.05 2.63-1.11 4.74-3.38l3.42 3.32q-2.52 2.85-6.16 4.32-3.58 1.48-7.9 1.48zm28.43-5.01h21.49v4.59h-26.76v-36.88h26.02v4.59h-20.75v11.32h-0.48v4.48h0.48zm18.49-11.91v-4.47h-18.49v4.47z"/>
		<path id="&lt;Path&gt;" class="s0" d="m2308.3 461.31c-24.38 0-46.37-13.45-57.4-35.11-1.88-3.67-3.39-7.52-4.52-11.46-3.34 5.62-8.17 10.11-14.14 13.11-4.78 2.39-10.12 3.66-15.44 3.66q-1.82 0-3.63-0.19l-1.44-0.16 0.78-7.33 1.43 0.15q1.43 0.15 2.85 0.15c4.18 0 8.38-1 12.14-2.88 13.36-6.7 18.79-23.03 12.09-36.39-4.63-9.23-13.93-14.96-24.29-14.96-4.23 0-8.3 0.97-12.1 2.87-13.37 6.7-18.79 23.02-12.09 36.39l0.65 1.29-6.6 3.3-0.65-1.28c-8.52-17.01-1.62-37.77 15.38-46.3 4.84-2.42 10.02-3.65 15.41-3.65 12.31 0 23.46 6.38 29.67 16.81 4.91-17.17 16.63-31.48 32.6-39.62 9.01-4.59 19.1-7.02 29.15-7.02q3.18 0 6.35 0.32l1.44 0.14-0.73 7.35-1.44-0.15q-2.8-0.28-5.61-0.28c-8.9 0-17.83 2.15-25.81 6.22-27.97 14.25-39.13 48.59-24.88 76.56 9.77 19.17 29.24 31.08 50.82 31.08 9.01 0 17.67-2.09 25.75-6.2 13.54-6.9 23.59-18.67 28.29-33.13 4.7-14.46 3.48-29.88-3.42-43.43l-0.65-1.28 6.57-3.35 0.66 1.28c16.09 31.59 3.49 70.39-28.11 86.49-9.11 4.64-18.9 7-29.08 7z"/>
		<path id="&lt;Compound Path&gt;" fill-rule="evenodd" class="s0" d="m2125.81 522.13q-4.21 0-7.79-1.37-3.53-1.42-6.16-3.95-2.59-2.58-4.06-6-1.48-3.43-1.48-7.54 0-4.1 1.48-7.53 1.47-3.42 4.11-5.95 2.63-2.58 6.16-3.95 3.58-1.42 7.8-1.42 4.26 0 7.85 1.47 3.63 1.42 6.16 4.27l-3.42 3.32q-2.11-2.22-4.75-3.27-2.63-1.11-5.63-1.11-3.11 0-5.8 1.06-2.63 1.05-4.58 2.95-1.95 1.89-3.05 4.53-1.06 2.58-1.06 5.63 0 3.06 1.06 5.69 1.1 2.58 3.05 4.48 1.95 1.9 4.58 2.95 2.69 1.05 5.8 1.05 3 0 5.63-1.05 2.64-1.11 4.75-3.37l3.42 3.32q-2.53 2.84-6.16 4.32-3.59 1.47-7.91 1.47zm39.04 0q-4.22 0-7.85-1.42-3.58-1.42-6.22-3.95-2.63-2.58-4.1-6.01-1.48-3.42-1.48-7.48 0-4.05 1.48-7.48 1.47-3.42 4.1-5.95 2.64-2.58 6.22-4 3.58-1.42 7.85-1.42 4.21 0 7.74 1.42 3.58 1.37 6.22 3.95 2.68 2.53 4.11 5.95 1.47 3.43 1.47 7.53 0 4.11-1.47 7.54-1.43 3.42-4.11 6-2.64 2.53-6.22 3.95-3.53 1.37-7.74 1.37zm0-4.69q3.05 0 5.63-1.05 2.64-1.05 4.53-2.95 1.95-1.95 3.01-4.53 1.1-2.58 1.1-5.64 0-3.05-1.1-5.63-1.06-2.58-3.01-4.48-1.89-1.95-4.53-3-2.58-1.06-5.63-1.06-3.11 0-5.74 1.06-2.58 1.05-4.53 3-1.95 1.9-3.06 4.48-1.05 2.58-1.05 5.63 0 3.06 1.05 5.64 1.11 2.58 3.06 4.53 1.95 1.9 4.53 2.95 2.63 1.05 5.74 1.05zm29.17 4.27v-36.87h4.32l22.13 27.47v-27.47h5.26v36.87h-4.32l-22.12-27.48v27.48zm55.07 0.42q-4.21 0-8.05-1.26-3.85-1.32-6.06-3.37l1.95-4.11q2.1 1.84 5.37 3.05 3.27 1.21 6.79 1.21 3.22 0 5.22-0.73 2-0.74 2.95-2 0.95-1.32 0.95-2.95 0-1.9-1.27-3.06-1.21-1.16-3.21-1.84-1.95-0.74-4.32-1.27-2.37-0.52-4.79-1.21-2.37-0.74-4.37-1.84-1.95-1.11-3.17-2.95-1.21-1.9-1.21-4.85 0-2.84 1.48-5.21 1.53-2.43 4.63-3.85 3.16-1.47 8.01-1.47 3.21 0 6.37 0.84 3.16 0.84 5.48 2.42l-1.74 4.22q-2.37-1.58-5-2.27-2.63-0.74-5.11-0.74-3.11 0-5.11 0.79-2 0.79-2.95 2.11-0.89 1.32-0.89 2.95 0 1.95 1.21 3.11 1.26 1.16 3.21 1.84 2 0.69 4.37 1.27 2.37 0.52 4.74 1.21 2.43 0.68 4.38 1.79 2 1.1 3.21 2.95 1.21 1.84 1.21 4.74 0 2.79-1.53 5.21-1.52 2.37-4.74 3.85-3.16 1.42-8.01 1.42zm30.36-0.42v-32.29h-12.64v-4.58h30.5v4.58h-12.64v32.29zm17.74 0l16.7-36.87h5.21l16.75 36.87h-5.53l-4.05-9.22h1.73l-1.52-4.21h-2.06l-7.95-18.1-7.95 18.1h-2.8l-1.42 4.21h2.36l-4.05 9.22zm9.48-9.22l1.85-4.21h15.9l1.86 4.21zm36.26 9.22v-36.87h4.32l22.13 27.47v-27.47h5.27v36.87h-4.32l-22.13-27.48v27.48zm60.82 0.42q-4.22 0-7.8-1.37-3.53-1.42-6.16-3.95-2.58-2.58-4.06-6-1.47-3.43-1.47-7.54 0-4.1 1.47-7.53 1.48-3.42 4.11-5.95 2.64-2.58 6.16-3.95 3.59-1.42 7.8-1.42 4.27 0 7.85 1.47 3.63 1.42 6.16 4.27l-3.42 3.32q-2.11-2.22-4.74-3.27-2.64-1.11-5.64-1.11-3.11 0-5.79 1.06-2.64 1.05-4.59 2.95-1.94 1.89-3.05 4.53-1.05 2.58-1.05 5.63 0 3.06 1.05 5.69 1.11 2.58 3.05 4.48 1.95 1.9 4.59 2.95 2.68 1.05 5.79 1.05 3 0 5.64-1.05 2.63-1.11 4.74-3.37l3.42 3.32q-2.53 2.84-6.16 4.32-3.58 1.47-7.9 1.47zm28.43-5h21.49v4.58h-26.76v-36.87h26.02v4.58h-20.75v11.33h-0.48v4.47h0.48zm18.48-11.9v-4.48h-18.48v4.48z"/>
		<text id="NOTES: Offset outline from original = 0.02
" transform="translate(-273,172.6)">
			<tspan x="0" y="8.4" class="t1">NOTES: Offset outline from </tspan>
			<tspan x="0" y="22.8" class="t1">original = 0.02
</tspan>
		</text>
		<path id="&lt;Path&gt;" class="s0" d="m-101.8 63.67l-4.01 2.04c7.08 13.89 8.32 29.71 3.51 44.54-4.82 14.82-15.12 26.88-29.01 33.96-28.68 14.61-63.89 3.17-78.5-25.51-14.61-28.67-3.17-63.88 25.51-78.49 9.98-5.09 21.12-7.19 32.21-6.09l0.45-4.48c-11.95-1.19-23.96 1.08-34.71 6.56-17.34 8.84-28.83 24.68-32.79 42.34q-0.25-0.58-0.53-1.14c-8.17-16.3-28.07-22.91-44.36-14.74-16.3 8.17-22.91 28.07-14.74 44.36l4.02-2.02c-7.05-14.07-1.34-31.26 12.73-38.32 14.08-7.05 31.27-1.34 38.32 12.73 7.06 14.08 1.35 31.27-12.73 38.32-4.9 2.46-10.35 3.45-15.78 2.88l-0.47 4.47q1.74 0.19 3.48 0.19c5.11 0 10.17-1.19 14.79-3.51 6.82-3.42 12.14-8.97 15.25-15.82 1.13 5.03 2.89 10.01 5.34 14.81 11.09 21.77 33.21 34.32 56.11 34.32 9.59-0.01 19.33-2.21 28.44-6.85 30.88-15.74 43.21-53.66 27.47-84.55z"/>
	</g>
</svg>