<svg overflow="hidden" version="1.2" xmlns="http://www.w3.org/2000/svg" viewBox="130 85 365 240" preserveAspectRatio="xMidYMid meet">
	<style>
		tspan { white-space:pre } 
		.s0 { fill: #000000 } 
		.t1 { font-size: 12px;fill: #000000;font-family: "Myriad Pro" } 
	</style>
	<g id="_Artboards_">
	</g>
	<g id="LOGO">
		<path id="&lt;Path&gt;" class="s0" d="m353.79 220.59c-24.04 0-45.74-13.27-56.62-34.63-2.17-4.27-3.86-8.75-5.02-13.36-3.25 6.35-8.34 11.38-14.8 14.62-4.66 2.34-9.87 3.57-15.05 3.57q-1.78 0-3.54-0.19l-0.58-0.06 0.6-5.62 0.57 0.06q1.47 0.16 2.94 0.16c4.31 0 8.65-1.03 12.52-2.97 13.8-6.92 19.39-23.76 12.48-37.55-4.77-9.52-14.38-15.44-25.06-15.44-4.36 0-8.57 1-12.49 2.97-13.79 6.91-19.39 23.75-12.47 37.54l0.25 0.52-5.05 2.53-0.26-0.51c-4.02-8.02-4.67-17.14-1.83-25.67 2.83-8.54 8.81-15.45 16.83-19.47 4.71-2.36 9.77-3.56 15.01-3.56 12.72 0 24.17 6.98 29.96 18.24 4.47-17.86 16.32-32.79 32.71-41.14 8.89-4.53 18.84-6.93 28.76-6.93q3.14 0.01 6.27 0.32l0.57 0.05-0.56 5.63-0.57-0.06q-2.85-0.28-5.71-0.28c-9.03 0-18.09 2.18-26.19 6.31-28.39 14.46-39.72 49.33-25.26 77.72 9.92 19.46 29.68 31.55 51.59 31.55 9.15 0 17.94-2.12 26.13-6.29 13.76-7.01 23.96-18.96 28.73-33.64 4.77-14.68 3.54-30.33-3.47-44.09l-0.26-0.51 5.04-2.57 0.26 0.52c7.68 15.07 9.02 32.26 3.78 48.39-5.25 16.14-16.43 29.25-31.51 36.93-8.99 4.58-18.65 6.91-28.7 6.91z"/>
		<path id="&lt;Compound Path&gt;" fill-rule="evenodd" class="s0" d="m171.31 282.28q-4.21 0-7.79-1.37-3.53-1.42-6.17-3.95-2.58-2.58-4.05-6.01-1.48-3.42-1.48-7.53 0-4.11 1.48-7.53 1.47-3.43 4.11-5.96 2.63-2.58 6.16-3.95 3.58-1.42 7.8-1.42 4.26 0 7.84 1.48 3.64 1.42 6.17 4.26l-3.43 3.32q-2.1-2.21-4.74-3.26-2.63-1.11-5.63-1.11-3.11 0-5.8 1.05-2.63 1.06-4.58 2.95-1.95 1.9-3.06 4.53-1.05 2.58-1.05 5.64 0 3.06 1.05 5.69 1.11 2.58 3.06 4.48 1.95 1.89 4.58 2.95 2.69 1.05 5.8 1.05 3 0 5.63-1.05 2.64-1.11 4.74-3.37l3.43 3.31q-2.53 2.85-6.17 4.32-3.58 1.48-7.9 1.48zm39.04 0q-4.22 0-7.85-1.42-3.58-1.43-6.22-3.95-2.63-2.59-4.11-6.01-1.47-3.42-1.47-7.48 0-4.06 1.47-7.48 1.48-3.42 4.11-5.95 2.64-2.58 6.22-4.01 3.58-1.42 7.85-1.42 4.21 0 7.74 1.42 3.58 1.37 6.22 3.95 2.68 2.53 4.11 5.96 1.47 3.42 1.47 7.53 0 4.11-1.47 7.53-1.43 3.43-4.11 6.01-2.64 2.53-6.22 3.95-3.53 1.37-7.74 1.37zm0-4.69q3.05 0 5.63-1.05 2.64-1.06 4.53-2.95 1.95-1.95 3.01-4.53 1.1-2.58 1.1-5.64 0-3.06-1.1-5.64-1.06-2.58-3.01-4.47-1.89-1.95-4.53-3.01-2.58-1.05-5.63-1.05-3.11 0-5.74 1.05-2.59 1.06-4.53 3.01-1.95 1.89-3.06 4.47-1.05 2.58-1.05 5.64 0 3.06 1.05 5.64 1.11 2.58 3.06 4.53 1.94 1.89 4.53 2.95 2.63 1.05 5.74 1.05zm29.17 4.27v-36.88h4.32l22.13 27.48v-27.48h5.26v36.88h-4.32l-22.12-27.48v27.48zm55.07 0.42q-4.21 0-8.06-1.27-3.84-1.31-6.05-3.37l1.94-4.11q2.11 1.85 5.38 3.06 3.26 1.21 6.79 1.21 3.22 0 5.22-0.74 2-0.73 2.95-2 0.95-1.32 0.95-2.95 0-1.89-1.27-3.05-1.21-1.16-3.21-1.85-1.95-0.73-4.32-1.26-2.37-0.53-4.79-1.21-2.37-0.74-4.38-1.85-1.94-1.1-3.16-2.95-1.21-1.89-1.21-4.84 0-2.85 1.48-5.22 1.52-2.42 4.63-3.84 3.16-1.48 8.01-1.48 3.21 0 6.37 0.84 3.16 0.85 5.48 2.43l-1.74 4.21q-2.37-1.58-5-2.26-2.63-0.74-5.11-0.74-3.11 0-5.11 0.79-2 0.79-2.95 2.11-0.9 1.31-0.9 2.95 0 1.95 1.22 3.1 1.26 1.16 3.21 1.85 2 0.68 4.37 1.26 2.37 0.53 4.74 1.21 2.43 0.69 4.37 1.79 2.01 1.11 3.22 2.95 1.21 1.85 1.21 4.75 0 2.79-1.53 5.21-1.53 2.37-4.74 3.85-3.16 1.42-8.01 1.42zm30.36-0.42v-32.29h-12.64v-4.59h30.5v4.59h-12.64v32.29zm17.74 0l16.69-36.88h5.22l16.75 36.88h-5.53l-4.05-9.22h1.73l-1.53-4.22h-2.05l-7.95-18.09-7.96 18.09h-2.79l-1.42 4.22h2.36l-4.05 9.22zm9.48-9.22l1.85-4.22h15.9l1.85 4.22zm36.27 9.22v-36.88h4.32l22.13 27.48v-27.48h5.26v36.88h-4.31l-22.13-27.48v27.48zm60.82 0.42q-4.22 0-7.8-1.37-3.53-1.42-6.16-3.95-2.58-2.58-4.06-6.01-1.47-3.42-1.47-7.53 0-4.11 1.47-7.53 1.48-3.43 4.11-5.96 2.63-2.58 6.16-3.95 3.59-1.42 7.8-1.42 4.27 0 7.85 1.48 3.63 1.42 6.16 4.26l-3.42 3.32q-2.11-2.21-4.74-3.26-2.64-1.11-5.64-1.11-3.11 0-5.79 1.05-2.64 1.06-4.59 2.95-1.95 1.9-3.05 4.53-1.06 2.58-1.06 5.64 0 3.06 1.06 5.69 1.1 2.58 3.05 4.48 1.95 1.89 4.59 2.95 2.68 1.05 5.79 1.05 3 0 5.64-1.05 2.63-1.11 4.74-3.37l3.42 3.31q-2.53 2.85-6.16 4.32-3.58 1.48-7.9 1.48zm28.42-5.01h21.5v4.59h-26.76v-36.88h26.02v4.59h-20.76v11.32h-0.47v4.48h0.47zm18.49-11.91v-4.47h-18.49v4.47z"/>
		<path id="&lt;Compound Path&gt;" fill-rule="evenodd" class="s0" d="m3185.14 279.76q0-4.21 1.37-7.79 1.42-3.53 3.95-6.17 2.58-2.58 6.01-4.05 3.42-1.48 7.53-1.48 4.11 0 7.53 1.48 3.43 1.47 5.96 4.11 2.58 2.63 3.95 6.16 1.42 3.58 1.42 7.8 0 4.26-1.48 7.85-1.42 3.63-4.26 6.16l-3.32-3.43q2.21-2.1 3.26-4.74 1.11-2.63 1.11-5.63 0-3.11-1.05-5.8-1.06-2.63-2.95-4.58-1.9-1.95-4.53-3.06-2.58-1.05-5.64-1.05-3.06 0-5.69 1.05-2.58 1.11-4.48 3.06-1.89 1.95-2.95 4.58-1.05 2.69-1.05 5.8 0 3 1.05 5.63 1.11 2.64 3.37 4.74l-3.31 3.43q-2.85-2.53-4.32-6.16-1.48-3.59-1.48-7.91zm0 39.04q0-4.22 1.42-7.85 1.43-3.58 3.95-6.22 2.59-2.63 6.01-4.11 3.42-1.47 7.48-1.47 4.06 0 7.48 1.47 3.42 1.48 5.95 4.11 2.58 2.64 4.01 6.22 1.42 3.58 1.42 7.85 0 4.21-1.42 7.74-1.37 3.58-3.95 6.22-2.53 2.68-5.96 4.11-3.42 1.47-7.53 1.47-4.11 0-7.53-1.47-3.43-1.43-6.01-4.11-2.53-2.64-3.95-6.22-1.37-3.53-1.37-7.74zm4.69 0q0 3.05 1.05 5.63 1.06 2.64 2.95 4.53 1.95 1.95 4.53 3.01 2.58 1.1 5.64 1.1 3.06 0 5.64-1.1 2.58-1.06 4.47-3.01 1.95-1.89 3.01-4.53 1.05-2.58 1.05-5.63 0-3.11-1.05-5.74-1.06-2.59-3.01-4.53-1.89-1.95-4.47-3.06-2.58-1.05-5.64-1.05-3.06 0-5.64 1.05-2.58 1.11-4.53 3.06-1.89 1.94-2.95 4.53-1.05 2.63-1.05 5.74zm-4.27 29.17h36.88v4.32l-27.48 22.13h27.48v5.26h-36.88v-4.32l27.48-22.12h-27.48zm-0.42 55.07q0-4.21 1.27-8.06 1.31-3.84 3.37-6.05l4.11 1.95q-1.85 2.1-3.06 5.37-1.21 3.27-1.21 6.79 0 3.22 0.74 5.22 0.73 2 2 2.95 1.32 0.95 2.95 0.95 1.89 0 3.05-1.27 1.16-1.21 1.85-3.21 0.73-1.95 1.26-4.32 0.53-2.37 1.21-4.79 0.74-2.37 1.85-4.38 1.1-1.94 2.95-3.16 1.89-1.21 4.84-1.21 2.85 0 5.22 1.48 2.42 1.53 3.84 4.63 1.48 3.16 1.48 8.01 0 3.21-0.84 6.37-0.85 3.16-2.43 5.48l-4.21-1.74q1.58-2.37 2.26-5 0.74-2.63 0.74-5.11 0-3.11-0.79-5.11-0.79-2-2.11-2.95-1.31-0.9-2.95-0.9-1.95 0-3.1 1.22-1.16 1.26-1.85 3.21-0.68 2-1.26 4.37-0.53 2.37-1.21 4.74-0.69 2.43-1.79 4.37-1.11 2.01-2.95 3.22-1.85 1.21-4.75 1.21-2.79 0-5.21-1.53-2.37-1.53-3.85-4.74-1.42-3.16-1.42-8.01zm0.42 30.36h32.29v-12.64h4.59v30.5h-4.59v-12.64h-32.29zm0 17.74l36.88 16.7v5.21l-36.88 16.75v-5.53l9.22-4.05v1.73l4.22-1.53v-2.05l18.09-7.95-18.09-7.95v-2.8l-4.22-1.42v2.36l-9.22-4.05zm9.22 9.48l4.22 1.85v15.9l-4.22 1.85zm-9.22 36.27h36.88v4.32l-27.48 22.13h27.48v5.27h-36.88v-4.32l27.48-22.13h-27.48zm-0.42 60.82q0-4.22 1.37-7.8 1.42-3.53 3.95-6.16 2.58-2.58 6.01-4.06 3.42-1.47 7.53-1.47 4.11 0 7.53 1.47 3.43 1.48 5.96 4.11 2.58 2.64 3.95 6.16 1.42 3.59 1.42 7.8 0 4.27-1.48 7.85-1.42 3.63-4.26 6.16l-3.32-3.42q2.21-2.11 3.26-4.74 1.11-2.64 1.11-5.64 0-3.11-1.05-5.79-1.06-2.64-2.95-4.59-1.9-1.95-4.53-3.05-2.58-1.06-5.64-1.06-3.06 0-5.69 1.06-2.58 1.1-4.48 3.05-1.89 1.95-2.95 4.59-1.05 2.68-1.05 5.79 0 3 1.05 5.64 1.11 2.63 3.37 4.74l-3.31 3.42q-2.85-2.53-4.32-6.16-1.48-3.58-1.48-7.9zm5.01 28.42v21.5h-4.59v-26.76h36.88v26.02h-4.59v-20.76h-11.32v-0.47h-4.48v0.47zm11.91 18.49h4.47v-18.49h-4.47z"/>
		<path id="&lt;Path&gt;" class="s0" d="m1386.91 495.44c-24.05 0-45.75-13.27-56.63-34.63-2.17-4.26-3.86-8.75-5.01-13.36-3.26 6.35-8.35 11.38-14.81 14.62-4.66 2.34-9.87 3.58-15.05 3.58q-1.78 0-3.54-0.19l-0.57-0.06 0.59-5.62 0.57 0.06q1.47 0.15 2.94 0.15c4.32 0 8.65-1.03 12.53-2.97 6.67-3.34 11.64-9.1 14-16.19 2.36-7.1 1.81-14.69-1.53-21.36-4.77-9.52-14.37-15.44-25.06-15.44-4.36 0-8.56 1-12.49 2.97-6.67 3.34-11.64 9.09-14 16.19-2.36 7.1-1.81 14.69 1.53 21.36l0.26 0.51-5.06 2.53-0.25-0.51c-4.02-8.02-4.67-17.13-1.84-25.67 2.84-8.53 8.81-15.44 16.83-19.46 4.72-2.37 9.77-3.57 15.02-3.57 12.72 0 24.16 6.98 29.95 18.24 4.47-17.85 16.32-32.78 32.71-41.14 8.9-4.53 18.84-6.92 28.76-6.92q3.14 0 6.27 0.31l0.57 0.06-0.56 5.62-0.57-0.06q-2.85-0.28-5.7-0.28c-9.04 0-18.1 2.18-26.2 6.31-13.73 7-23.92 18.94-28.7 33.64-4.77 14.7-3.55 30.35 3.44 44.08 9.92 19.46 29.69 31.55 51.59 31.55 9.15 0 17.94-2.12 26.14-6.29 13.75-7.01 23.95-18.95 28.72-33.63 4.77-14.68 3.54-30.34-3.47-44.09l-0.26-0.52 5.04-2.56 0.26 0.51c15.88 31.17 3.44 69.44-27.73 85.33-8.99 4.58-18.65 6.9-28.69 6.9z"/>
		<path id="&lt;Path&gt;" class="s0" d="m353.79 554.44c-24.04 0-45.74-13.27-56.62-34.63-2.17-4.26-3.86-8.75-5.02-13.36-3.25 6.35-8.34 11.38-14.8 14.62-4.66 2.34-9.87 3.57-15.05 3.58q-1.77-0.01-3.54-0.19l-0.58-0.06 0.6-5.62 0.57 0.06q1.47 0.15 2.94 0.15c4.31 0 8.65-1.03 12.52-2.97 6.67-3.34 11.65-9.1 14.01-16.19 2.35-7.11 1.81-14.69-1.53-21.36-4.77-9.52-14.38-15.44-25.06-15.44-4.36 0-8.57 1-12.49 2.97-13.79 6.91-19.39 23.75-12.47 37.55l0.25 0.51-5.05 2.53-0.26-0.51c-8.31-16.58-1.58-36.82 15-45.13 4.71-2.37 9.77-3.57 15.01-3.57 12.72 0 24.17 6.98 29.96 18.24 4.47-17.85 16.32-32.79 32.71-41.14 8.89-4.53 18.84-6.92 28.76-6.92q3.14 0 6.27 0.31l0.57 0.06-0.56 5.62-0.57-0.06q-2.85-0.28-5.71-0.28c-9.03 0-18.09 2.18-26.19 6.31-13.73 7-23.93 18.94-28.7 33.64-4.78 14.7-3.55 30.35 3.44 44.08 9.92 19.46 29.68 31.55 51.59 31.55 9.15 0 17.94-2.12 26.13-6.29 13.76-7.01 23.96-18.95 28.73-33.63 4.77-14.68 3.54-30.34-3.47-44.09l-0.26-0.52 5.04-2.56 0.26 0.51c7.68 15.07 9.02 32.26 3.78 48.39-5.25 16.14-16.43 29.25-31.51 36.94-8.99 4.58-18.65 6.9-28.7 6.9z"/>
		<path id="&lt;Compound Path&gt;" fill-rule="evenodd" class="s0" d="m173.38 732q-4.22 0-7.8-1.37-3.53-1.42-6.16-3.95-2.58-2.58-4.06-6-1.47-3.43-1.47-7.53 0-4.11 1.47-7.54 1.48-3.42 4.11-5.95 2.63-2.58 6.16-3.95 3.59-1.42 7.8-1.42 4.27 0 7.85 1.47 3.63 1.42 6.16 4.27l-3.42 3.32q-2.11-2.22-4.74-3.27-2.64-1.1-5.64-1.1-3.11 0-5.79 1.05-2.64 1.05-4.59 2.95-1.95 1.89-3.05 4.53-1.06 2.58-1.06 5.64 0 3.05 1.06 5.68 1.1 2.59 3.05 4.48 1.95 1.9 4.59 2.95 2.68 1.06 5.79 1.06 3 0 5.64-1.06 2.63-1.1 4.74-3.37l3.42 3.32q-2.53 2.84-6.16 4.32-3.58 1.47-7.9 1.47zm39.03 0q-4.21 0-7.85-1.42-3.58-1.42-6.21-3.95-2.64-2.58-4.11-6-1.48-3.43-1.48-7.48 0-4.06 1.48-7.48 1.47-3.43 4.11-5.96 2.63-2.58 6.21-4 3.58-1.42 7.85-1.42 4.21 0 7.74 1.42 3.59 1.37 6.22 3.95 2.69 2.53 4.11 5.95 1.47 3.43 1.47 7.54 0 4.1-1.47 7.53-1.42 3.42-4.11 6-2.63 2.53-6.22 3.95-3.53 1.37-7.74 1.37zm0-4.68q3.06 0 5.64-1.06 2.63-1.05 4.53-2.95 1.95-1.95 3-4.53 1.11-2.58 1.11-5.63 0-3.06-1.11-5.64-1.05-2.58-3-4.48-1.9-1.95-4.53-3-2.58-1.05-5.64-1.05-3.11 0-5.74 1.05-2.58 1.05-4.53 3-1.95 1.9-3.06 4.48-1.05 2.58-1.05 5.64 0 3.05 1.05 5.63 1.11 2.58 3.06 4.53 1.95 1.9 4.53 2.95 2.63 1.06 5.74 1.06zm29.18 4.26v-36.87h4.31l22.13 27.47v-27.47h5.27v36.87h-4.32l-22.13-27.47v27.47zm55.08 0.42q-4.22 0-8.06-1.26-3.85-1.32-6.06-3.37l1.95-4.11q2.11 1.84 5.37 3.05 3.27 1.22 6.8 1.22 3.21 0 5.21-0.74 2-0.74 2.95-2 0.95-1.32 0.95-2.95 0-1.9-1.26-3.06-1.22-1.16-3.22-1.84-1.95-0.74-4.32-1.27-2.37-0.52-4.79-1.21-2.37-0.74-4.37-1.84-1.95-1.11-3.16-2.95-1.21-1.9-1.22-4.85 0.01-2.84 1.48-5.21 1.53-2.43 4.64-3.85 3.16-1.47 8-1.47 3.22 0 6.38 0.84 3.16 0.84 5.47 2.42l-1.73 4.22q-2.37-1.58-5.01-2.27-2.63-0.74-5.11-0.74-3.11 0-5.11 0.79-2 0.79-2.95 2.11-0.89 1.32-0.89 2.95 0 1.95 1.21 3.11 1.26 1.16 3.21 1.84 2 0.69 4.37 1.27 2.37 0.52 4.74 1.21 2.43 0.68 4.38 1.79 2 1.11 3.21 2.95 1.21 1.84 1.21 4.74 0 2.79-1.53 5.22-1.52 2.37-4.74 3.84-3.16 1.42-8 1.42zm30.36-0.42v-32.29h-12.65v-4.58h30.5v4.58h-12.64v32.29zm17.74 0l16.7-36.87h5.21l16.75 36.87h-5.53l-4.05-9.22h1.74l-1.53-4.21h-2.06l-7.95-18.09-7.95 18.09h-2.8l-1.42 4.21h2.37l-4.05 9.22zm9.47-9.22l1.85-4.21h15.91l1.85 4.21zm36.27 9.22v-36.87h4.32l22.12 27.47v-27.47h5.27v36.87h-4.32l-22.13-27.47v27.47zm60.82 0.42q-4.21 0-7.8-1.37-3.52-1.42-6.16-3.95-2.58-2.58-4.06-6-1.47-3.43-1.47-7.53 0-4.11 1.47-7.54 1.48-3.42 4.11-5.95 2.64-2.58 6.17-3.95 3.58-1.42 7.79-1.42 4.27 0 7.85 1.47 3.64 1.42 6.16 4.27l-3.42 3.32q-2.11-2.22-4.74-3.27-2.63-1.1-5.64-1.1-3.1 0-5.79 1.05-2.63 1.05-4.58 2.95-1.95 1.89-3.06 4.53-1.05 2.58-1.05 5.64 0 3.05 1.05 5.68 1.11 2.59 3.06 4.48 1.95 1.9 4.58 2.95 2.69 1.06 5.79 1.06 3.01 0 5.64-1.06 2.63-1.1 4.74-3.37l3.42 3.32q-2.52 2.84-6.16 4.32-3.58 1.47-7.9 1.47zm28.43-5h21.49v4.58h-26.76v-36.87h26.02v4.58h-20.75v11.33h-0.48v4.47h0.48zm18.49-11.9v-4.48h-18.49v4.48z"/>
		<path id="&lt;Compound Path&gt;" fill-rule="evenodd" class="s0" d="m677.2 280.95q0-4.21 1.37-7.79 1.42-3.53 3.95-6.16 2.58-2.59 6.01-4.06 3.42-1.48 7.53-1.48 4.11 0 7.53 1.48 3.43 1.47 5.95 4.11 2.59 2.63 3.96 6.16 1.42 3.58 1.42 7.8 0 4.26-1.48 7.85-1.42 3.63-4.26 6.16l-3.32-3.42q2.21-2.11 3.26-4.75 1.11-2.63 1.11-5.63 0-3.11-1.05-5.8-1.06-2.63-2.95-4.58-1.9-1.95-4.53-3.05-2.58-1.06-5.64-1.06-3.06 0-5.69 1.06-2.58 1.1-4.48 3.05-1.89 1.95-2.95 4.58-1.05 2.69-1.05 5.8 0 3 1.05 5.63 1.11 2.64 3.37 4.75l-3.31 3.42q-2.85-2.53-4.32-6.16-1.48-3.59-1.48-7.91zm0 39.04q0-4.22 1.42-7.85 1.43-3.58 3.95-6.22 2.59-2.63 6.01-4.11 3.42-1.47 7.48-1.47 4.06 0 7.48 1.47 3.42 1.48 5.95 4.11 2.58 2.64 4.01 6.22 1.42 3.58 1.42 7.85 0 4.21-1.42 7.74-1.37 3.58-3.96 6.22-2.52 2.68-5.95 4.11-3.42 1.47-7.53 1.47-4.11 0-7.53-1.47-3.43-1.43-6.01-4.11-2.53-2.64-3.95-6.22-1.37-3.53-1.37-7.74zm4.69 0q0 3.05 1.05 5.63 1.06 2.64 2.95 4.53 1.95 1.95 4.53 3.01 2.58 1.1 5.64 1.1 3.06 0 5.64-1.1 2.58-1.06 4.47-3.01 1.95-1.89 3.01-4.53 1.05-2.58 1.05-5.63 0-3.11-1.05-5.74-1.06-2.58-3.01-4.53-1.89-1.95-4.47-3.06-2.58-1.05-5.64-1.05-3.06 0-5.64 1.05-2.58 1.11-4.53 3.06-1.89 1.95-2.95 4.53-1.05 2.63-1.05 5.74zm-4.27 29.17h36.88v4.32l-27.48 22.13h27.48v5.26h-36.88v-4.32l27.48-22.12h-27.48zm-0.42 55.07q0-4.21 1.27-8.06 1.31-3.84 3.37-6.05l4.11 1.95q-1.85 2.1-3.06 5.37-1.21 3.27-1.21 6.79 0 3.22 0.74 5.22 0.73 2 2 2.95 1.32 0.95 2.95 0.95 1.89 0 3.05-1.27 1.16-1.21 1.85-3.21 0.73-1.95 1.26-4.32 0.53-2.37 1.21-4.79 0.74-2.37 1.85-4.38 1.1-1.94 2.95-3.16 1.89-1.21 4.84-1.21 2.85 0 5.22 1.48 2.42 1.53 3.84 4.63 1.48 3.16 1.48 8.01 0 3.21-0.84 6.37-0.85 3.16-2.43 5.48l-4.21-1.74q1.58-2.37 2.26-5 0.74-2.63 0.74-5.11 0-3.11-0.79-5.11-0.79-2-2.11-2.95-1.31-0.89-2.95-0.9-1.95 0.01-3.1 1.22-1.16 1.26-1.85 3.21-0.68 2-1.26 4.37-0.53 2.37-1.21 4.74-0.69 2.43-1.8 4.37-1.1 2.01-2.94 3.22-1.85 1.21-4.75 1.21-2.79 0-5.21-1.53-2.37-1.53-3.85-4.74-1.42-3.16-1.42-8.01zm0.42 30.36h32.29v-12.64h4.59v30.5h-4.59v-12.64h-32.29zm0 17.74l36.88 16.7v5.21l-36.88 16.75v-5.53l9.22-4.05v1.73l4.22-1.52v-2.06l18.09-7.95-18.09-7.95v-2.8l-4.22-1.42v2.36l-9.22-4.05zm9.22 9.48l4.22 1.85v15.9l-4.22 1.86zm-9.22 36.26h36.88v4.32l-27.48 22.13h27.48v5.27h-36.88v-4.32l27.48-22.13h-27.48zm-0.42 60.82q0-4.22 1.37-7.8 1.42-3.53 3.95-6.16 2.58-2.58 6.01-4.06 3.42-1.47 7.53-1.47 4.11 0 7.53 1.47 3.43 1.48 5.95 4.11 2.59 2.64 3.96 6.16 1.42 3.59 1.42 7.8 0 4.27-1.48 7.85-1.42 3.63-4.26 6.16l-3.32-3.42q2.21-2.11 3.26-4.74 1.11-2.64 1.11-5.64 0-3.11-1.05-5.79-1.06-2.64-2.95-4.59-1.9-1.94-4.53-3.05-2.58-1.05-5.64-1.05-3.06 0-5.69 1.05-2.58 1.11-4.48 3.05-1.89 1.95-2.95 4.59-1.05 2.68-1.05 5.79 0 3 1.05 5.64 1.11 2.63 3.37 4.74l-3.31 3.42q-2.85-2.53-4.32-6.16-1.48-3.58-1.48-7.9zm5.01 28.42v21.5h-4.59v-26.76h36.88v26.02h-4.59v-20.76h-11.32v-0.47h-4.48v0.47zm11.91 18.49h4.47v-18.49h-4.47z"/>
		<path id="&lt;Compound Path&gt;" fill-rule="evenodd" class="s0" d="m3973.81 452.81q-4.21 0-7.79-1.37-3.53-1.42-6.16-3.95-2.59-2.58-4.06-6.01-1.48-3.42-1.48-7.53 0-4.11 1.48-7.53 1.47-3.43 4.11-5.96 2.63-2.58 6.16-3.95 3.58-1.42 7.8-1.42 4.26 0 7.85 1.48 3.63 1.42 6.16 4.26l-3.42 3.32q-2.11-2.21-4.75-3.26-2.63-1.11-5.63-1.11-3.11 0-5.8 1.05-2.63 1.06-4.58 2.95-1.95 1.9-3.05 4.53-1.06 2.58-1.06 5.64 0 3.05 1.06 5.69 1.1 2.58 3.05 4.48 1.95 1.89 4.58 2.95 2.69 1.05 5.8 1.05 3 0 5.63-1.05 2.64-1.11 4.75-3.38l3.42 3.32q-2.53 2.85-6.16 4.32-3.59 1.48-7.91 1.48zm39.04 0q-4.22 0-7.85-1.43-3.58-1.42-6.22-3.95-2.63-2.58-4.1-6-1.48-3.42-1.48-7.48 0-4.06 1.48-7.48 1.47-3.42 4.1-5.95 2.64-2.58 6.22-4.01 3.58-1.42 7.85-1.42 4.21 0 7.74 1.42 3.58 1.37 6.22 3.95 2.68 2.53 4.11 5.96 1.47 3.42 1.47 7.53 0 4.11-1.47 7.53-1.43 3.43-4.11 6.01-2.64 2.53-6.22 3.95-3.53 1.37-7.74 1.37zm0-4.69q3.05 0 5.63-1.05 2.64-1.06 4.53-2.95 1.95-1.95 3.01-4.53 1.1-2.59 1.1-5.64 0-3.06-1.1-5.64-1.06-2.58-3.01-4.47-1.89-1.95-4.53-3.01-2.58-1.05-5.63-1.05-3.11 0-5.74 1.05-2.58 1.06-4.53 3.01-1.95 1.89-3.06 4.47-1.05 2.58-1.05 5.64 0 3.05 1.05 5.64 1.11 2.58 3.06 4.53 1.95 1.89 4.53 2.95 2.63 1.05 5.74 1.05zm29.17 4.27v-36.88h4.32l22.13 27.48v-27.48h5.26v36.88h-4.32l-22.12-27.48v27.48zm55.07 0.42q-4.21 0-8.05-1.27-3.85-1.31-6.06-3.37l1.95-4.11q2.1 1.85 5.37 3.06 3.27 1.21 6.79 1.21 3.22 0 5.22-0.74 2-0.74 2.95-2 0.95-1.32 0.95-2.95 0-1.9-1.27-3.05-1.21-1.16-3.21-1.85-1.95-0.74-4.32-1.26-2.37-0.53-4.79-1.21-2.37-0.74-4.37-1.85-1.95-1.1-3.17-2.95-1.21-1.89-1.21-4.84 0-2.85 1.48-5.22 1.53-2.42 4.63-3.84 3.16-1.48 8.01-1.48 3.21 0 6.37 0.84 3.16 0.85 5.48 2.43l-1.74 4.21q-2.37-1.58-5-2.26-2.63-0.74-5.11-0.74-3.11 0-5.11 0.79-2 0.79-2.95 2.11-0.89 1.31-0.89 2.95 0 1.94 1.21 3.1 1.26 1.16 3.21 1.85 2 0.68 4.37 1.26 2.37 0.53 4.74 1.21 2.43 0.69 4.38 1.79 2 1.11 3.21 2.95 1.21 1.85 1.21 4.74 0 2.8-1.53 5.22-1.52 2.37-4.74 3.84-3.16 1.43-8.01 1.43zm30.36-0.42v-32.29h-12.64v-4.59h30.5v4.59h-12.64v32.29zm17.74 0l16.7-36.88h5.21l16.75 36.88h-5.53l-4.05-9.22h1.73l-1.52-4.22h-2.06l-7.95-18.09-7.95 18.09h-2.8l-1.42 4.22h2.36l-4.05 9.22zm27.23-13.44l1.86 4.22h-19.61l1.85-4.22zm18.52 13.44v-36.88h4.32l22.12 27.48v-27.48h5.27v36.88h-4.32l-22.13-27.48v27.48zm60.82 0.42q-4.21 0-7.8-1.37-3.52-1.42-6.16-3.95-2.58-2.58-4.06-6.01-1.47-3.42-1.47-7.53 0-4.11 1.47-7.53 1.48-3.43 4.11-5.96 2.64-2.58 6.17-3.95 3.58-1.42 7.79-1.42 4.27 0 7.85 1.48 3.64 1.42 6.16 4.26l-3.42 3.32q-2.11-2.21-4.74-3.26-2.63-1.11-5.64-1.11-3.1 0-5.79 1.05-2.63 1.06-4.58 2.95-1.95 1.9-3.06 4.53-1.05 2.58-1.05 5.64 0 3.05 1.05 5.69 1.11 2.58 3.06 4.48 1.95 1.89 4.58 2.95 2.69 1.05 5.79 1.05 3.01 0 5.64-1.05 2.63-1.11 4.74-3.38l3.42 3.32q-2.52 2.85-6.16 4.32-3.58 1.48-7.9 1.48zm28.43-5.01h21.49v4.59h-26.76v-36.88h26.02v4.59h-20.75v11.32h-0.48v4.48h0.48zm18.49-11.91v-4.47h-18.49v4.47z"/>
		<path id="&lt;Path&gt;" class="s0" d="m2308.3 460.44c-24.05 0-45.75-13.27-56.63-34.63-2.17-4.26-3.86-8.75-5.01-13.36-3.26 6.35-8.35 11.39-14.81 14.62-4.66 2.34-9.87 3.58-15.05 3.58q-1.78 0-3.54-0.19l-0.58-0.06 0.6-5.62 0.57 0.06q1.47 0.15 2.94 0.15c4.32 0 8.65-1.03 12.53-2.97 13.79-6.91 19.38-23.76 12.47-37.55-4.77-9.52-14.37-15.44-25.06-15.44-4.36 0-8.57 1-12.49 2.97-13.79 6.91-19.38 23.76-12.47 37.55l0.26 0.51-5.06 2.53-0.25-0.51c-8.31-16.58-1.59-36.82 14.99-45.13 4.71-2.37 9.77-3.57 15.02-3.57 12.71 0 24.16 6.98 29.95 18.24 4.47-17.85 16.32-32.78 32.71-41.14 8.9-4.53 18.84-6.92 28.76-6.92q3.14 0 6.27 0.31l0.57 0.06-0.56 5.62-0.57-0.06q-2.85-0.28-5.7-0.28c-9.04 0-18.1 2.18-26.2 6.31-28.39 14.47-39.72 49.33-25.26 77.72 9.92 19.46 29.69 31.55 51.59 31.55 9.15 0 17.94-2.12 26.14-6.29 13.75-7.01 23.95-18.95 28.72-33.63 4.77-14.68 3.54-30.34-3.47-44.09l-0.26-0.52 5.04-2.56 0.26 0.51c15.88 31.17 3.44 69.45-27.73 85.33-8.99 4.58-18.65 6.9-28.69 6.9z"/>
		<path id="&lt;Compound Path&gt;" fill-rule="evenodd" class="s0" d="m2125.81 522.13q-4.21 0-7.79-1.37-3.53-1.42-6.16-3.95-2.59-2.58-4.06-6-1.48-3.43-1.48-7.54 0-4.1 1.48-7.53 1.47-3.42 4.11-5.95 2.63-2.58 6.16-3.95 3.58-1.42 7.8-1.42 4.26 0 7.85 1.47 3.63 1.42 6.16 4.27l-3.42 3.32q-2.11-2.22-4.75-3.27-2.63-1.11-5.63-1.11-3.11 0-5.8 1.06-2.63 1.05-4.58 2.95-1.95 1.89-3.05 4.53-1.06 2.58-1.06 5.63 0 3.06 1.06 5.69 1.1 2.58 3.05 4.48 1.95 1.9 4.58 2.95 2.69 1.05 5.8 1.05 3 0 5.63-1.05 2.64-1.11 4.75-3.37l3.42 3.32q-2.53 2.84-6.16 4.32-3.59 1.47-7.91 1.47zm39.04 0q-4.22 0-7.85-1.42-3.58-1.42-6.22-3.95-2.63-2.58-4.1-6.01-1.48-3.42-1.48-7.48 0-4.05 1.48-7.48 1.47-3.42 4.1-5.95 2.64-2.58 6.22-4 3.58-1.42 7.85-1.42 4.21 0 7.74 1.42 3.58 1.37 6.22 3.95 2.68 2.53 4.11 5.95 1.47 3.43 1.47 7.53 0 4.11-1.47 7.54-1.43 3.42-4.11 6-2.64 2.53-6.22 3.95-3.53 1.37-7.74 1.37zm0-4.69q3.05 0 5.63-1.05 2.64-1.05 4.53-2.95 1.95-1.95 3.01-4.53 1.1-2.58 1.1-5.64 0-3.05-1.1-5.63-1.06-2.58-3.01-4.48-1.89-1.95-4.53-3-2.58-1.06-5.63-1.06-3.11 0-5.74 1.06-2.58 1.05-4.53 3-1.95 1.9-3.06 4.48-1.05 2.58-1.05 5.63 0 3.06 1.05 5.64 1.11 2.58 3.06 4.53 1.95 1.9 4.53 2.95 2.63 1.05 5.74 1.05zm29.17 4.27v-36.87h4.32l22.13 27.47v-27.47h5.26v36.87h-4.32l-22.12-27.48v27.48zm55.07 0.42q-4.21 0-8.05-1.26-3.85-1.32-6.06-3.37l1.95-4.11q2.1 1.84 5.37 3.05 3.27 1.21 6.79 1.21 3.22 0 5.22-0.73 2-0.74 2.95-2 0.95-1.32 0.95-2.95 0-1.9-1.27-3.06-1.21-1.16-3.21-1.84-1.95-0.74-4.32-1.27-2.37-0.52-4.79-1.21-2.37-0.74-4.37-1.84-1.95-1.11-3.17-2.95-1.21-1.9-1.21-4.85 0-2.84 1.48-5.21 1.53-2.43 4.63-3.85 3.16-1.47 8.01-1.47 3.21 0 6.37 0.84 3.16 0.84 5.48 2.42l-1.74 4.22q-2.37-1.58-5-2.27-2.63-0.74-5.11-0.74-3.11 0-5.11 0.79-2 0.79-2.95 2.11-0.89 1.32-0.89 2.95 0 1.95 1.21 3.11 1.26 1.16 3.21 1.84 2 0.69 4.37 1.27 2.37 0.52 4.74 1.21 2.43 0.68 4.38 1.79 2 1.1 3.21 2.95 1.21 1.84 1.21 4.74 0 2.79-1.53 5.21-1.52 2.37-4.74 3.85-3.16 1.42-8.01 1.42zm30.36-0.42v-32.29h-12.64v-4.58h30.5v4.58h-12.64v32.29zm17.74 0l16.7-36.87h5.21l16.75 36.87h-5.53l-4.05-9.22h1.73l-1.52-4.21h-2.06l-7.95-18.1-7.95 18.1h-2.8l-1.42 4.21h2.36l-4.05 9.22zm9.48-9.22l1.85-4.21h15.9l1.86 4.21zm36.26 9.22v-36.87h4.32l22.13 27.47v-27.47h5.27v36.87h-4.32l-22.13-27.48v27.48zm60.82 0.42q-4.22 0-7.8-1.37-3.53-1.42-6.16-3.95-2.58-2.58-4.06-6-1.47-3.43-1.47-7.54 0-4.1 1.47-7.53 1.48-3.42 4.11-5.95 2.64-2.58 6.16-3.95 3.59-1.42 7.8-1.42 4.27 0 7.85 1.47 3.63 1.42 6.16 4.27l-3.42 3.32q-2.11-2.22-4.74-3.27-2.64-1.11-5.64-1.11-3.11 0-5.79 1.06-2.64 1.05-4.59 2.95-1.94 1.89-3.05 4.53-1.05 2.58-1.05 5.63 0 3.06 1.05 5.69 1.11 2.58 3.05 4.48 1.95 1.9 4.59 2.95 2.68 1.05 5.79 1.05 3 0 5.64-1.05 2.63-1.11 4.74-3.37l3.42 3.32q-2.53 2.84-6.16 4.32-3.58 1.47-7.9 1.47zm28.43-5h21.49v4.58h-26.76v-36.87h26.02v4.58h-20.75v11.33h-0.48v4.47h0.48zm18.48-11.9v-4.48h-18.48v4.48z"/>
		<path id="&lt;Path&gt;" class="s0" d="m-165.23 45.99l-4.01 2.05c7.08 13.89 8.32 29.7 3.5 44.53-4.82 14.83-15.12 26.89-29.01 33.97-28.67 14.61-63.89 3.16-78.5-25.51-14.61-28.68-3.16-63.89 25.51-78.5 9.98-5.09 21.12-7.19 32.22-6.09l0.45-4.47c-11.96-1.19-23.96 1.07-34.71 6.55-17.35 8.84-28.84 24.68-32.79 42.34q-0.26-0.57-0.54-1.14c-8.17-16.29-28.06-22.9-44.36-14.74-16.29 8.17-22.9 28.07-14.74 44.36l4.03-2.01c-7.06-14.08-1.35-31.27 12.73-38.32 14.07-7.06 31.26-1.35 38.32 12.73 7.05 14.07 1.34 31.26-12.73 38.32-4.9 2.46-10.36 3.45-15.78 2.87l-0.48 4.48q1.74 0.18 3.48 0.18c5.12 0 10.17-1.19 14.79-3.51 6.83-3.42 12.14-8.96 15.26-15.81 1.12 5.03 2.89 10 5.33 14.8 11.1 21.77 33.21 34.32 56.12 34.32 9.59 0 19.32-2.2 28.43-6.84 30.89-15.74 43.21-53.67 27.48-84.56z"/>
		<text id="NOTES: Offset outline from original = 0.008
" transform="translate(-322.1,145.4)">
			<tspan x="0" y="8.4" class="t1">NOTES: Offset outline from </tspan>
			<tspan x="0" y="22.8" class="t1">original = 0.008
</tspan>
		</text>
	</g>
</svg>